<svg height="48" viewBox="0 0 1024 1024" width="48" xmlns="http://www.w3.org/2000/svg"><path d="m495.678984 823.744252a111.837754 147.321539 24.314 1 0 -203.836095-92.095493 111.837754 147.321539 24.314 1 0 203.836095 92.095493z" fill="#f9c73d"/><path d="m369.475156 937.922946c-.004053 0 0 0 0 0-15.4013 0-30.154124-3.141055-43.869387-9.342104-32.537272-14.704188-55.47305-44.684034-64.567923-84.4356-8.673364-37.911515-3.631464-80.52448 14.205673-119.992337 28.820695-63.789752 86.231067-106.649948 142.851108-106.649948 15.393194 0 30.150071 3.141055 43.861281 9.342104 65.362306 29.538072 87.953581 121.252812 50.358197 204.444149-28.820695 63.777593-86.227014 106.633736-142.838949 106.633736zm48.623524-283.943227c-42.540011 0-86.587729 34.235468-109.612671 85.197559-14.574493 32.257617-18.797692 66.647098-11.887372 96.845805 6.488811 28.366762 22.125183 49.434119 44.023399 59.339587 8.957072 4.044868 18.663944 6.099725 28.849067 6.099725 42.531905.004053 86.579623-34.227362 109.604566-85.189453 29.311105-64.86379 14.894678-134.931598-32.140081-156.181338-8.957072-4.057027-18.659891-6.111884-28.836908-6.111885z" fill="#6e6e96"/><path d="m232.046926 866.355538a118.3063 118.3063 0 1 0 236.6126 0 118.3063 118.3063 0 1 0 -236.6126 0z" fill="#f9c73d"/><path d="m295.848837 880.107277s-27.199506-103.760178 64.422016-113.329249c0 0-134.092633-4.782509-106.350028 126.225811z" fill="#fff" opacity=".4"/><path d="m350.353226 1002.900219c-75.292091 0-136.544682-61.25259-136.544682-136.540628 0-75.292091 61.25259-136.544682 136.544682-136.544682s136.540629 61.25259 136.540629 136.544682c.008106 75.283985-61.248538 136.540629-136.540629 136.540628zm0-236.6126c-55.177183 0-100.067919 44.890736-100.067919 100.067919s44.890736 100.059813 100.067919 100.059813 100.063866-44.88263 100.063866-100.059813-44.886683-100.067919-100.063866-100.067919z" fill="#6e6e96"/><path d="m134.605334 612.651547s15.344558 3.805742 35.528367 8.867906l32.594014 8.19106 67.502275 16.98196c11.506392-82.133511 34.673189-158.823878 65.236664-233.941691l-67.502276-16.98196-32.553484-8.187007c-11.794153-7.335882-24.820411-3.084313-36.225478-10.424248-25.817442 73.411511-57.738662 146.052958-62.634655 225.316963-1.191574 6.484758-1.945427 10.177017-1.945427 10.177017z" fill="#b4b7c9"/><path d="m285.477277 669.344542-119.785635-30.133859c-20.151385-5.054058-35.479731-8.863853-35.479732-8.863853l-16.961694-4.202934 3.477451-17.135972c.020265-.085112.660635-3.250485 1.681984-8.770635 4.373159-67.372581 27.284618-129.780269 49.450331-190.153364a3032.925281 3032.925281 0 0 0 14.112455-38.9815l7.66012-21.784734 19.417796 12.499371c2.119705 1.361799 5.337766 1.823838 10.408037 2.456102 6.533393.822754 14.517752 1.819785 22.810135 6.221315l117.994222 29.679926-7.907352 19.442114c-32.739921 80.467738-53.697848 155.573393-64.069407 229.59285zm-130.404426-70.387993 19.502909 4.871675 80.654175 20.289186c10.594473-64.490916 28.893649-129.881593 55.602745-198.749721l-82.627973-20.783649-2.423678-1.503653c-2.366937-1.471229-5.662004-1.945427-10.853864-2.602009a241.415374 241.415374 0 0 1 -4.490695-.591735c-2.776287 7.668226-5.576892 15.295922-8.324807 22.785818-20.856602 56.786214-42.40221 115.465166-47.038812 176.284088z" fill="#6e6e96"/><path d="m112.800336 611.573456c-2.135917 72.175354 54.009927 132.390384 125.419269 134.510089 71.405289 2.111599 92.091667-55.825659 94.231637-128.005066 2.131864-72.163196-17.144078-61.726788-88.549368-63.846494-71.401236-2.103493-128.965621-14.833883-131.101538 57.341471z" fill="#f9c73d"/><path d="m241.968605 764.374615c-.004053 0 .004053 0 0 0-1.414488 0-2.845187-.020265-4.292099-.064847-81.347234-2.423678-145.546336-71.178323-143.114552-153.27941 2.285877-77.221307 64.122096-77.221307 90.523166-77.221307 10.910605 0 22.368361.555257 34.486753 1.142939 8.037047.393138 16.345643.79033 24.856887 1.045667 8.94086.25939 17.217032.332344 24.516438.389085 30.150071.243178 51.938857.417456 66.707893 15.749856 13.678786 14.197567 15.895763 36.845583 15.016267 66.476873-2.857346 96.71611-39.435433 145.761144-108.700753 145.761144zm-56.875379-194.088801c-41.964489 0-53.081796 8.596357-54.062615 41.818582-1.84005 62.006444 46.487608 113.91693 107.732092 115.744821 1.078091.032424 2.152129.048636 3.205902.048635 32.115763 0 69.354485-12.543953 72.252361-110.358419.834913-28.127637-2.164288-37.335993-4.827091-40.100121-4.125927-4.283993-21.087622-4.417741-40.728332-4.575807-7.485842-.060795-15.968716-.125642-25.306768-.405297a1283.013386 1283.013386 0 0 1 -25.545893-1.078091c-11.668511-.55931-22.696652-1.094303-32.719656-1.094303z" fill="#6e6e96"/><path d="m181.940013 347.542489c-34.523229 68.13454-1.041614 138.530639 74.805734 157.239165 75.83519 18.708526 112.474071-34.385428 147.001354-102.515915 34.523229-68.13454 53.843755-125.500329-21.987382-144.208855s-165.292424 21.351065-199.819706 89.485605z" fill="#f9c73d"/><path d="m285.963634 526.813619h-.008106c-10.659321 0-21.954958-1.446912-33.578886-4.316417-42.771031-10.553943-75.292091-35.925558-91.585046-71.445819-15.847127-34.563759-14.116507-74.250477 4.875728-111.744536 31.053884-61.280961 104.007409-104.080363 177.410814-104.080363 14.764983 0 29.246258 1.726567 43.046633 5.131064 30.437832 7.514213 50.674329 21.788786 60.146129 42.44274 16.856317 36.760471-4.717661 85.197559-26.259216 127.721358-28.51267 56.259327-64.742201 116.291972-134.04805 116.291973zm57.118557-255.118479c-60.210976 0-119.789689 34.575918-144.873542 84.091097-13.869276 27.369731-15.381035 55.801341-4.259675 80.050283 11.559081 25.205443 35.406778 43.403295 67.161826 51.237692 8.770635 2.164288 17.13192 3.262644 24.844728 3.262644 44.084194.004053 70.606854-35.313559 101.518884-96.314865 18.088421-35.690486 35.277082-75.012436 25.643164-96.023052-4.669026-10.18107-16.353749-17.452104-35.726963-22.226507a143.005122 143.005122 0 0 0 -34.308422-4.077292z" fill="#6e6e96"/><path d="m728.260594 347.765402c0 90.348888-93.133281 163.594228-208.014819 163.594228s-208.014819-73.245339-208.014819-163.594228c0-109.426235 32.504849-163.598281 166.84066-163.59828 216.684129.004053 249.188978 73.245339 249.188978 163.59828z" fill="#95ddff"/><path d="m696.63524 559.492745c0 107.829363-46.580826 195.243899-194.640005 195.243899-140.35853 0-173.171404-87.414535-173.171405-195.243899s82.340212-195.243899 183.903679-195.243899c101.571572-.004053 183.907732 87.406429 183.907731 195.243899z" fill="#f8a4a7"/><path d="m501.991182 772.979078c-70.882456 0-122.687565-21.760415-153.96031-64.685459-25.197337-34.579971-37.449476-83.252131-37.449476-148.800874 0-117.714566 90.681232-213.48228 202.14206-213.48228 54.204469 0 105.109818 22.339991 143.321253 62.910257 37.935833 40.278452 58.828912 93.74528 58.828913 150.56797.004053 139.669524-73.610107 213.490386-212.88244 213.490386zm10.736327-390.49185c-91.349973 0-165.665297 79.405859-165.665297 177.005517 0 124.069629 46.337648 177.00957 154.937076 177.00957 118.703492 0 176.401624-57.900781 176.401624-177.00957 0-47.488692-17.362939-92.079508-48.899127-125.55707-31.260586-33.177642-72.726559-51.4525-116.774276-51.448447z" fill="#6e6e96"/><path d="m598.16014 194.469781a70.76492 70.76492 0 0 1 1.904898 15.993034c0 66.788952-94.730153 120.932627-211.581436 120.932627-26.648302 0-52.121241-2.841135-75.60417-7.980305a450.860893 450.860893 0 0 0 -.64037 24.354318c0 90.348888 93.133281 163.594228 208.014819 163.594228s208.014819-73.245339 208.014818-163.594228c-.008106-70.217768-19.660975-130.092348-130.108559-153.299674z" fill="#95ddff"/><path d="m802.746143 458.456165c0 118.132022-91.852541 213.907842-318.012523 213.907843-235.368338 0-263.47571-96.229753-252.678588-213.907843 10.837651-118.140128 104.586985-213.907842 252.678588-213.907842 148.095657 0 318.012523 95.767714 318.012523 213.907842z" fill="#b4b7c9"/><path d="m289.145218 375.21214s34.584024 92.20515 159.119745 84.099203c124.531668-8.105947 146.827076-42.556223 146.827076-42.556223s18.542354 100.756924 57.868357 124.985601c39.326003 24.224623-249.833401 113.57648-368.018111 2.200764-46.212005-43.545149 4.202934-168.729345 4.202933-168.729345z" fill="#e2e2ea" opacity=".5"/><path d="m484.73362 690.606442c-113.969619 0-189.788596-22.376467-231.789562-68.406089-43.666738-47.857513-43.808592-113.53595-39.050401-165.40996 5.852494-63.846494 34.579971-121.804017 80.877089-163.18893 49.24363-44.019347 114.930173-67.295574 189.962874-67.295574 155.492333 0 336.250904 101.409453 336.250904 232.146223 0 68.211546-28.160061 125.553017-81.440452 165.803099-58.257443 44.031506-143.994047 66.351231-254.810452 66.351231zm0-427.819738c-129.443872 0-223.687668 79.296429-234.51316 197.331181-6.05109 65.970252 3.100525 108.372462 29.667767 137.49713 34.70156 38.029052 101.70532 56.510611 204.845393 56.510611 190.510026 0 299.774142-71.320177 299.774142-195.669461 0-88.630427-133.719759-195.669461-299.774142-195.669461z" fill="#6e6e96"/><path d="m515.13553 854.424768a147.321539 111.837754 65.686 1 0 203.836094-92.095493 147.321539 111.837754 65.686 1 0 -203.836094 92.095493z" fill="#f9c73d"/><path d="m563.880089 690.715872s49.575973-9.394793 57.95347 47.460322h59.60303s-44.947478-76.965969-117.5565-47.460322z" fill="#fff" opacity=".4"/><path d="m641.348627 968.56748c-56.620042 0-114.022307-42.856143-142.847056-106.641843-37.587277-83.191337-15.004108-174.906077 50.358198-204.448201 13.719316-6.192944 28.468087-9.338051 43.865333-9.338052 56.620042 0 114.02636 42.860196 142.847056 106.649948 17.833084 39.463804 22.883089 82.080822 14.209726 119.992338-9.094873 39.747512-32.022545 69.735464-64.571976 84.439652-13.707157 6.205103-28.464034 9.346157-43.861281 9.346158zm-48.623525-283.951333c-10.185123 0-19.887942 2.054858-28.845013 6.099725-47.030706 21.257847-61.447133 91.325655-32.140081 156.185392 23.028996 50.953985 67.072661 85.189453 109.608619 85.189453 10.18107 0 19.883889-2.050805 28.845013-6.099725 21.90227-9.897362 37.538642-30.972824 44.027453-59.335534 6.902214-30.194654 2.679016-64.596294-11.895478-96.845805-23.016837-50.949932-67.064555-85.193506-109.600513-85.193506z" fill="#6e6e96"/><path d="m903.393637 631.43708s-19.948736 2.577691-46.171475 5.994348c-13.074893 1.706302-27.718287 3.631464-42.361681 5.552574l-87.730667 11.522604c1.941374-92.428064-11.765782-180.085777-35.04201-266.782936l87.73472-11.526657c14.631235-1.92111 29.274629-3.838166 42.300886-5.552574 16.199736-6.853578 31.633459-.725482 47.346838-7.639856 17.675018 84.301852 43.139851 168.405107 33.505933 256.934211.206702 7.315617.417456 11.498286.417456 11.498286z" fill="#b4b7c9"/><path d="m708.449658 675.355102.445828-21.233529c1.750885-83.268343-9.508276-168.863093-34.417853-261.672136l-5.394507-20.098696 148.456371-19.498857c10.343189-3.809795 20.033849-4.048921 27.949306-4.235357 6.744148-.162119 12.069755-.287761 16.637457-2.298036l20.581-9.058396 4.62039 22.0117c3.12079 14.882519 6.557711 30.093329 9.885202 44.809676 15.713379 69.455809 31.96175 141.25829 24.030081 216.574699.19049 6.217262.368821 9.779825.372874 9.88115l.843018 16.831999-16.722569 2.160235c-.004053 0-19.94063 2.577691-46.147158 5.994348zm6.480705-272.242292c20.228391 80.796029 30.295978 156.610954 30.61211 230.577723l109.328964-14.343473 30.243289-3.935438c6.938691-68.860022-8.523404-137.193157-23.478876-203.297157-2.038646-9.005707-4.117821-18.197852-6.148361-27.42242-3.234273.243178-6.298321.320185-9.13135.385033-6.841419.166172-12.244033.291814-17.11976 2.35883l-2.277772.964608z" fill="#6e6e96"/><path d="m888.904256 357.966737c26.372699 71.680892-15.62016 147.30938-93.793915 168.927941-78.173755 21.610455-108.485945-34.028767-134.854592-105.701552-26.372699-71.680892-38.823434-132.24853 39.354374-153.867091 78.165649-21.614508 162.917381 18.967917 189.294133 90.640702z" fill="#f9c73d"/><path d="m718.703682 278.958069s106.341922.656582 126.781068 69.658458c7.064333 23.847697 7.672279 73.800597-24.500226 99.216794 0 0 52.303625-5.1108 59.655719-56.490346 5.281025-36.930696-45.320351-137.399859-161.936561-112.384906z" fill="#fff" opacity=".4"/><path d="m763.278286 549.846668c-69.318008 0-98.357564-63.157488-120.142298-122.355221-16.142994-43.881546-31.734784-93.891187-12.191344-131.976981 11.165942-21.748257 32.630491-37.145503 63.793805-45.766178a179.263024 179.263024 0 0 1 47.816983-6.472599c73.910027 0 139.600624 43.557308 163.456426 108.388674 13.998971 38.045263 11.64014 78.611477-6.638771 114.229009-19.42185 37.838562-55.655434 66.472821-99.411337 78.579053-12.900615 3.566617-25.245973 5.374243-36.683464 5.374243zm-20.714749-270.090163c-12.92088 0-25.740436 1.734673-38.089846 5.151329-21.225423 5.868706-34.661031 14.781195-41.064729 27.260301-12.203504 23.77069-.494463 63.420931 13.962495 102.734776 22.947937 62.371211 44.363849 98.4751 85.906829 98.4751 8.158636 0 17.229191-1.365852 26.968486-4.057027 34.450276-9.532594 61.686259-30.863394 76.682261-60.077228 13.569356-26.433494 15.287817-56.607883 4.855463-84.970592-18.307282-49.766463-71.445819-84.516659-129.220959-84.516659z" fill="#6e6e96"/><path d="m811.57352 448.911412c-34.652925 7.246717-86.620152-7.404783-114.93828-52.344154-24.593444-39.038242 2.97083-129.23717 57.288783-116.352767 16.215948 3.846272-51.614619-18.696367-78.972192-18.696367-14.61097 29.477277-57.91294 85.505585-17.241349 159.679055 26.372699 71.676839 56.680836 127.307955 134.850538 105.697499 66.148583-18.299176 118.699439-110.431373 86.231067-162.645832 17.861455 32.314359-10.128381 80.881142-67.218567 84.662566z" fill="#6e6e96" opacity=".2"/><path d="m910.226951 666.021104c-9.629865 71.632256-74.898953 121.978294-145.773303 112.437594-70.870297-9.536647-81.878173-70.140762-72.244255-141.768964 9.637971-71.636309 26.984698-58.192595 97.863101-48.655949 70.870297 9.532594 129.796481 6.338851 120.154457 77.987319z" fill="#f9c73d"/><path d="m714.873622 723.236933s-12.888456-138.785976 81.326969-104.469449c0 0-42.276568-22.157607-77.496909-24.796092-35.718857-2.679016-36.707782 100.704236-3.83006 129.265541z" fill="#fff" opacity=".4"/><path d="m781.694998 797.860283a148.338835 148.338835 0 0 1 -19.673134-1.317216c-71.510667-9.621759-101.073056-64.22342-87.892786-162.277011 4.912204-36.513239 13.314018-72.15509 56.453869-72.15509 10.59042 0 22.538586 1.872474 37.64402 4.243463 7.218346 1.13078 15.405353 2.419625 24.269206 3.6112 8.426132 1.134833 16.682039 2.087281 24.674503 3.003253 42.288727 4.863568 78.801966 9.070555 98.900663 34.904209 11.692829 15.028426 15.689061 34.847467 12.227821 60.579797-9.913574 73.772226-72.941366 129.407395-146.604162 129.407395zm-51.107998-199.272554c-9.252939 0-14.841989 0-20.301345 40.533789-13.305912 98.941192 23.255963 116.778329 56.595724 121.264971 4.916257.660635 9.897362.997032 14.813619.997032 55.477103 0 102.957689-42.041495 110.45569-97.794201 2.095387-15.526942.498516-26.425388-4.863568-33.319496-10.695797-13.747687-40.160916-17.140025-74.286954-21.07141a1287.69457 1287.69457 0 0 1 -25.363509-3.088366 1133.333017 1133.333017 0 0 1 -25.055483-3.724683c-13.545038-2.119705-24.244888-3.797636-31.994174-3.797636z" fill="#6e6e96"/><path d="m674.951831 235.546669c0 102.053876-113.499474 180.912584-218.917317 180.912584-105.42595 0-162.836322-78.858708-162.836322-180.912584 0-102.057929 85.456949-184.79128 190.882899-184.79128 105.413791.008106 190.87074 82.737404 190.87074 184.79128z" fill="#c5c5d5"/><path d="m538.703017 870.108591a118.3063 118.3063 0 1 0 236.6126 0 118.3063 118.3063 0 1 0 -236.6126 0z" fill="#f9c73d"/><path d="m657.009317 770.040672s-78.023795 4.725767-55.120441 107.732092l-42.280621 15.227022c.004053 0-36.569981-106.074426 97.401062-122.959114z" fill="#fff" opacity=".4"/><path d="m657.009317 1006.653273c-75.292091 0-136.544682-61.25259-136.544682-136.544682s61.25259-136.540629 136.544682-136.540628 136.540629 61.248538 136.540629 136.540628-61.248538 136.544682-136.540629 136.544682zm0-236.612601c-55.177183 0-100.067919 44.886683-100.067919 100.063866s44.890736 100.067919 100.067919 100.067919c55.17313 0 100.063866-44.890736 100.063866-100.067919s-44.88263-100.063866-100.063866-100.063866z" fill="#6e6e96"/><path d="m688.703571 756.130867c27.280566 18.67205 21.894164 46.588932 21.894163 78.088643 0 56.194479-32.549431 101.984976-100.773136 101.984975-20.953874 0-40.679696-4.312364-57.969682-11.903583 19.656922 38.08174 59.359852 64.118043 105.154401 64.118042 65.337988 0 118.302247-52.972365 118.302247-118.3063.004053-54.358482-36.667252-100.120608-86.607993-113.981777zm-311.69799-5.033794c30.158177 18.355918 16.775258 81.095949 16.775258 81.09595 0 34.166568-58.318238 100.24625-90.620438 100.24625-20.917397 0-40.614849-4.251569-57.880516-11.729306 19.685293 37.980416 59.335534 63.951871 105.073341 63.951871 65.337988 0 118.302247-52.972365 118.302247-118.3063.008106-56.170162-39.151725-103.160338-91.649892-115.258465z" fill="#6e6e96" opacity=".2"/><path d="m224.536766 960.603386c0 37.335993 53.880231 38.450561 120.344946 38.450561 66.468768 0 120.348999-1.114568 120.348999-38.450561s-53.880231-67.6036-120.348999-67.6036c-66.464715 0-120.344946 30.263554-120.344946 67.6036z" fill="#b4b7c9"/><path d="m344.881712 1017.288276c-36.343015 0-65.974305-.421509-89.132996-5.674163-40.870186-9.28131-49.450331-32.857457-49.450332-51.010727 0-48.137168 60.875664-85.846034 138.579275-85.846034 77.715769 0 138.58738 37.708867 138.58738 85.846034 0 18.153269-8.580145 41.729417-49.450331 51.010727-23.150585 5.256707-52.789982 5.674163-89.132996 5.674163zm0-106.054161c-60.1745 0-102.102512 26.016038-102.102512 49.369271 0 18.688261 46.244429 20.208127 102.102512 20.208127 55.866189 0 102.110618-1.519865 102.110617-20.208127 0-23.353234-41.936118-49.369272-102.110617-49.369271z" fill="#6e6e96"/><path d="m772.340735 960.603386c0 37.335993-58.188542 38.450561-129.966706 38.450561s-129.966705-1.114568-129.966705-38.450561 58.184489-67.6036 129.966705-67.6036 129.966705 30.263554 129.966706 67.6036z" fill="#b4b7c9"/><g fill="#6e6e96"><path d="m642.378082 1017.288276c-72.86436 0-148.201034 0-148.201034-56.68489 0-48.939657 63.716798-85.846034 148.201034-85.846034s148.201034 36.898272 148.201034 85.846034c0 56.684889-75.336674 56.684889-148.201034 56.68489zm0-106.054161c-63.947818 0-111.724271 26.064673-111.724271 49.369271 0 20.208127 64.580082 20.208127 111.724271 20.208127s111.724271 0 111.724271-20.208127c0-23.304598-47.780506-49.369272-111.724271-49.369271z"/><path d="m168.346339 559.492745s-18.161375 94.908484 54.330112 112.875316c72.495539 17.970885 52.481956-53.795119 52.481955-53.795119s93.465625 76.216169 11.141625 116.547309-167.521559-12.110285-173.56049-99.378913c-6.038931-87.264575 55.606798-76.248593 55.606798-76.248593z" opacity=".2"/><path d="m840.532016 594.230782c-.162119 2.845187-.405297 5.77954-.826807 8.904383-.38098 2.796552-.798436 5.641739-1.248315 8.499086l-102.87663-12.442629c21.188946 2.922194 102.118724 18.007362 85.40426 76.576884-19.904154 45.429781-57.138822 75.746024-127.064776 39.816413-.235072-.032424-.453933-.077006-.697112-.113484 8.020835 33.489721 28.982814 57.317153 71.222906 62.991316 70.870297 9.536647 136.143437-40.805339 145.773303-112.437594 7.214293-53.568152-23.904438-65.301511-69.686829-71.794375zm-104.951752 4.96084c-3.141055-.433668-4.997316-.603893-4.997317-.603893z" opacity=".2"/><path d="m563.880089 690.715872s-30.936348 45.117702 17.699336 107.144411l-60.547373 68.495255c-.004053 0-48.664054-150.093773 42.848037-175.639666z" opacity=".2"/></g><path d="m485.981936 67.259097c-4.324523 0-8.596357.202649-12.843874.494463 79.114045 5.925447 141.416356 69.905689 141.416356 148.01865.004053 82.020028-83.438568 132.783522-168.161929 132.783522-80.248878 0-133.630594-44.254419-138.234771-119.951807a168.287571 168.287571 0 0 0 -.413404 11.206472c0 95.297569 53.608682 168.936047 152.051359 168.936047 98.438624 0 204.423884-73.638478 204.423884-168.936047s-79.798998-172.551299-178.237621-172.5513z" fill="#828292" opacity=".3"/><path d="m320.207208 283.708154s-12.843873-151.686591 123.826451-181.054438c107.825311-23.174903 146.936506 33.988237 146.936506 33.988237s-68.345295-112.648349-197.274439-42.920991-72.588758 176.79071-73.488518 189.987192z" fill="#e2e2ea"/><path d="m456.030461 434.697634c-108.307614 0-181.074703-80.03407-181.074703-199.150965 0-111.947185 93.810128-203.025608 209.12128-203.025609s209.113175 91.078423 209.113175 203.025609c0 113.981777-125.208514 199.150965-237.159752 199.150965zm28.046577-365.695758c-95.192192 0-172.644518 74.716569-172.644518 166.548846 0 119.939649 74.696304 162.674203 144.597941 162.674202 114.85722 0 200.682989-85.882511 200.682989-162.674202 0-91.83633-77.44422-166.548845-172.636412-166.548846z" fill="#6e6e96"/><path d="m432.973094 461.151393c-49.304424-.851124-82.66445-18.161375-104.41676-36.938802-15.92008 45.668907-17.516952 100.217879-15.766067 139.819484 38.146588 24.163829 87.009238 34.190886 135.965106 35.755334-20.183809-59.996169-19.243519-109.97744-15.782279-138.636016z" fill="#e2e2ea" opacity=".7"/><path d="m342.490457 434.811117a144.589834 144.589834 0 0 1 -13.934123-10.598526c-15.92008 45.668907-17.516952 100.217879-15.766067 139.819484 10.112169 6.407751 20.998456 11.7901 32.415683 16.313219-19.438062-83.928978-3.372074-143.171294-2.715493-145.534177z" fill="#fff"/><path d="m385.885646 184.167122h36.476763v60.381201h-36.476763zm76.698473 0h36.476763v60.381201h-36.476763z" fill="#6e6e96"/><path d="m356.967679 911.602935s101.652632 73.253445-91.528303 64.807049c0 0 191.288197 53.945079 189.707536-7.846557-1.576607-61.78353-52.587333-50.495998-98.179233-56.960492zm296.714147 0s101.652632 73.253445-91.528304 64.807049c0 0 191.288197 53.945079 189.707537-7.846557-1.58066-61.78353-52.591386-50.495998-98.179233-56.960492zm181.638066-379.990596s20.613424 15.89171 3.137002 80.021912l72.803565-31.288957-17.387257-104.736944z" fill="#6e6e96" opacity=".2"/></svg>